<svg width="829" height="622" viewBox="0 0 829 622" fill="none" xmlns="http://www.w3.org/2000/svg">
<g id="building-19-2_floor-1">
<g id="room-14">
<rect id="room-14_2" x="365.5" y="66.5" width="155" height="166" fill="#A8D299" stroke="black"/>
<text id="14" fill="black" xml:space="preserve" style="white-space: pre" font-family="Inter" font-size="20" letter-spacing="0em"><tspan x="431" y="157.273">14</tspan></text>
</g>
<g id="room-17">
<g id="room-17_2">
<mask id="path-3-inside-1_11_475" fill="white">
<path fill-rule="evenodd" clip-rule="evenodd" d="M365 352H194V622H365H521V423H365V352Z"/>
</mask>
<path fill-rule="evenodd" clip-rule="evenodd" d="M365 352H194V622H365H521V423H365V352Z" fill="#A8D299"/>
<path d="M194 352V351H193V352H194ZM365 352H366V351H365V352ZM194 622H193V623H194V622ZM521 622V623H522V622H521ZM521 423H522V422H521V423ZM365 423H364V424H365V423ZM194 353H365V351H194V353ZM195 622V352H193V622H195ZM365 621H194V623H365V621ZM521 621H365V623H521V621ZM520 423V622H522V423H520ZM365 424H521V422H365V424ZM364 352V423H366V352H364Z" fill="black" mask="url(#path-3-inside-1_11_475)"/>
</g>
<text id="17" fill="black" xml:space="preserve" style="white-space: pre" font-family="Inter" font-size="20" letter-spacing="0em"><tspan x="347" y="494.273">17</tspan></text>
</g>
<g id="room-15">
<rect id="room-15_2" x="521.5" y="66.5" width="307" height="264" fill="#A8D299" stroke="black"/>
<text id="15" fill="black" xml:space="preserve" style="white-space: pre" font-family="Inter" font-size="20" letter-spacing="0em"><tspan x="670" y="157.273">15</tspan></text>
</g>
<g id="room-16">
<rect id="room-16_2" x="521.5" y="352.5" width="307" height="269" fill="#A8D299" stroke="black"/>
<text id="16" fill="black" xml:space="preserve" style="white-space: pre" font-family="Inter" font-size="20" letter-spacing="0em"><tspan x="670" y="494.273">16</tspan></text>
</g>
<rect id="corridor" x="194.5" y="0.5" width="147" height="259" fill="#D9D9D9" stroke="black"/>
<g id="corridor_2">
<mask id="path-11-inside-2_11_475" fill="white">
<path fill-rule="evenodd" clip-rule="evenodd" d="M160 203H0V423H160V331H194H424V352H365V423H521V352H504V331H521V260V233H365V260H194V293H160V203Z"/>
</mask>
<path fill-rule="evenodd" clip-rule="evenodd" d="M160 203H0V423H160V331H194H424V352H365V423H521V352H504V331H521V260V233H365V260H194V293H160V203Z" fill="#D9D9D9"/>
<path d="M0 203V202H-1V203H0ZM160 203H161V202H160V203ZM0 423H-1V424H0V423ZM160 423V424H161V423H160ZM160 331V330H159V331H160ZM424 331H425V330H424V331ZM424 352V353H425V352H424ZM365 352V351H364V352H365ZM365 423H364V424H365V423ZM521 423V424H522V423H521ZM521 352H522V351H521V352ZM504 352H503V353H504V352ZM504 331V330H503V331H504ZM521 331V332H522V331H521ZM521 233H522V232H521V233ZM365 233V232H364V233H365ZM365 260V261H366V260H365ZM194 260V259H193V260H194ZM194 293V294H195V293H194ZM160 293H159V294H160V293ZM0 204H160V202H0V204ZM1 423V203H-1V423H1ZM160 422H0V424H160V422ZM159 331V423H161V331H159ZM194 330H160V332H194V330ZM424 330H194V332H424V330ZM425 352V331H423V352H425ZM365 353H424V351H365V353ZM366 423V352H364V423H366ZM521 422H365V424H521V422ZM520 352V423H522V352H520ZM504 353H521V351H504V353ZM503 331V352H505V331H503ZM521 330H504V332H521V330ZM520 260V331H522V260H520ZM520 233V260H522V233H520ZM365 234H521V232H365V234ZM366 260V233H364V260H366ZM194 261H365V259H194V261ZM195 293V260H193V293H195ZM160 294H194V292H160V294ZM159 203V293H161V203H159Z" fill="black" mask="url(#path-11-inside-2_11_475)"/>
</g>
</g>
</svg>
