<svg width="788" height="584" viewBox="0 0 788 584" fill="none" xmlns="http://www.w3.org/2000/svg">
<g id="building-19-1_floor-2">
<g id="room-21">
<rect id="room-21_2" x="632.5" y="0.5" width="155" height="82" fill="#A8D299" stroke="black"/>
<text id="21" fill="black" xml:space="preserve" style="white-space: pre" font-family="Inter" font-size="20" letter-spacing="0em"><tspan x="699" y="50.2727">21</tspan></text>
</g>
<g id="room-22">
<!-- merged into room-23 -->
</g>
<g id="room-22a">
<rect id="room-22a_rect" x="632.5" y="199.5" width="50" height="53" fill="#A8D299" stroke="black"/>
<text id="22a" fill="black" xml:space="preserve" style="white-space: pre" font-family="Inter" font-size="20" letter-spacing="0em"><tspan x="640" y="233.273">22a</tspan></text>
</g>
<g id="room-23">
<path fill-rule="evenodd" clip-rule="evenodd" d="M632.5 83.5H788V199V253V333H710V253H683V199H632.5V83.5Z" fill="#A8D299" stroke="black"/>
<text id="23" fill="black" xml:space="preserve" style="white-space: pre" font-family="Inter" font-size="20" letter-spacing="0em"><tspan x="750" y="233.273">23</tspan></text>
</g>
<g id="room-24">
<mask id="path-8-inside-2_10_447" fill="white">
<path fill-rule="evenodd" clip-rule="evenodd" d="M710 253H632V292V333H710V292V253Z"/>
</mask>
<path fill-rule="evenodd" clip-rule="evenodd" d="M710 253H632V292V333H710V292V253Z" fill="#A8D299"/>
<path d="M632 253V252H631V253H632ZM710 253H711V252H710V253ZM632 333H631V334H632V333ZM710 333V334H711V333H710ZM632 254H710V252H632V254ZM633 292V253H631V292H633ZM633 333V292H631V333H633ZM710 332H632V334H710V332ZM709 292V333H711V292H709ZM709 253V292H711V253H709Z" fill="black" mask="url(#path-8-inside-2_10_447)"/>
<text id="24" fill="black" xml:space="preserve" style="white-space: pre" font-family="Inter" font-size="20" letter-spacing="0em"><tspan x="645" y="296.273">24</tspan></text>
</g>
<g id="room-27">
<rect id="room-27_2" x="0.5" y="361.5" width="192" height="222" fill="#A8D299" stroke="black"/>
<text id="27" fill="black" xml:space="preserve" style="white-space: pre" font-family="Inter" font-size="20" letter-spacing="0em"><tspan x="85" y="511.273">27</tspan></text>
</g>
<g id="room-26">
<rect id="room-26_2" x="193.5" y="414.5" width="141" height="169" fill="#A8D299" stroke="black"/>
<text id="26" fill="black" xml:space="preserve" style="white-space: pre" font-family="Inter" font-size="20" letter-spacing="0em"><tspan x="251" y="506.273">26</tspan></text>
</g>
<g id="room-25">
<g id="room-25_2">
<mask id="path-14-inside-3_10_447" fill="white">
<path fill-rule="evenodd" clip-rule="evenodd" d="M788 361H193V414H335V584H788V414V361Z"/>
</mask>
<path fill-rule="evenodd" clip-rule="evenodd" d="M788 361H193V414H335V584H788V414V361Z" fill="#A8D299"/>
<path d="M193 361V360H192V361H193ZM788 361H789V360H788V361ZM193 414H192V415H193V414ZM335 414H336V413H335V414ZM335 584H334V585H335V584ZM788 584V585H789V584H788ZM193 362H788V360H193V362ZM194 414V361H192V414H194ZM335 413H193V415H335V413ZM336 584V414H334V584H336ZM788 583H335V585H788V583ZM787 414V584H789V414H787ZM787 361V414H789V361H787Z" fill="black" mask="url(#path-14-inside-3_10_447)"/>
</g>
<text id="25" fill="black" xml:space="preserve" style="white-space: pre" font-family="Inter" font-size="20" letter-spacing="0em"><tspan x="544" y="506.273">25</tspan></text>
</g>
</g>
</svg>
